<svg xmlns="http://www.w3.org/2000/svg" width="11" height="18" viewBox="0 0 11 18"><g><g><path d="M5.8 7.9c-2.27-.59-3-1.2-3-2.15 0-1.09 1.01-1.85 2.7-1.85 1.42 0 2.13.54 2.39 1.4.12.4.45.7.87.7h.3c.66 0 1.13-.65.9-1.27C9.54 3.55 8.56 2.57 7 2.19V1.5C7 .67 6.33 0 5.5 0S4 .67 4 1.5v.66C2.06 2.58.5 3.84.5 5.77c0 2.31 1.91 3.46 4.7 4.13 2.5.6 3 1.48 3 2.41 0 .69-.49 1.79-2.7 1.79-1.65 0-2.5-.59-2.83-1.43-.15-.39-.49-.67-.9-.67h-.28c-.67 0-1.14.68-.89 1.3.57 1.39 1.9 2.21 3.4 2.53v.67c0 .83.67 1.5 1.5 1.5S7 17.33 7 16.5v-.65c1.95-.37 3.5-1.5 3.5-3.55 0-2.84-2.43-3.81-4.7-4.4z"/></g></g></svg>