<?xml version="1.0" encoding="UTF-8"?>
<svg width="19px" height="21px" viewBox="0 0 19 21" version="1.1" xmlns="http://www.w3.org/2000/svg" xmlns:xlink="http://www.w3.org/1999/xlink">
    <title>Group 4</title>
    <g id="Page-1" stroke="none" stroke-width="1" fill="none" fill-rule="evenodd">
        <g id="main-concept" transform="translate(-79.000000, -642.000000)">
            <g id="Group-4" transform="translate(80.957144, 643.621492)">
                <path d="M2.60661039,16.8364753 L2.60661039,14.3785079 C0.727564746,11.8740772 -0.135560218,9.36624157 0.017235497,6.85500091 C0.246429069,3.08813991 3.21266708,0.883185007 5.05552256,0.37850786 C6.89837804,-0.126169287 8.44961854,-0.126169287 9.86088997,0.37850786 C10.6226247,0.650907689 11.9909707,1.26901209 13.1690003,2.56536671 C14.1735147,3.67077774 15.0633136,5.38544026 15.0633136,6.53721103 C15.0633136,9.03970412 17.4621535,11.4048543 15.8248117,11.4048543 C14.7332505,11.4048543 14.4794178,11.4048543 15.0633136,11.4048543 C14.9294643,13.3139703 14.7580892,14.48127 14.5491885,14.9067533 C14.2358373,15.5449782 13.1754104,16.2035427 11.8495889,16.419874 C10.9657079,16.5640948 10.6303472,16.5640948 10.8435068,16.419874 L10.8435068,18.3785079 L2.60661039,16.8364753 Z" id="Path-10" stroke="#000000" fill="#000000" stroke-linecap="round" stroke-linejoin="round"></path>
                <path d="M7.28191377,11.0302475 C7.76781764,10.8835048 7.87966213,10.9319096 7.95918809,11.0147362 C8.04778747,11.1070128 8.09562189,11.2369313 8.09562189,11.3785079 C8.09562189,11.5209006 8.04168732,11.6518394 7.95015882,11.7461412 C7.86547966,11.8333861 7.74818827,11.8878554 7.61595782,11.8878554 C7.48372738,11.8878554 7.36643598,11.8333861 7.28175683,11.7461412 C7.19022833,11.6518394 7.13629375,11.5209006 7.13629375,11.3785079 C7.13629375,11.2420303 7.19217935,11.1191799 7.28191377,11.0302475 Z" id="Oval" stroke="#FFFFFF" fill="#FFFFFF"></path>
                <polygon id="Path-11" fill="#FFFFFF" points="6.63629375 8.6970677 8.59562189 8.6970677 8.59562189 2.55622945 6.63629375 2.55622945"></polygon>
            </g>
        </g>
    </g>
</svg>