<?xml version="1.0" encoding="UTF-8"?>
<svg width="76px" height="77px" viewBox="0 0 76 77" version="1.1" xmlns="http://www.w3.org/2000/svg" xmlns:xlink="http://www.w3.org/1999/xlink">
    <title>Group 9</title>
    <defs>
        <filter x="-3.0%" y="-13.0%" width="106.0%" height="126.0%" filterUnits="objectBoundingBox" id="filter-1">
            <feOffset dx="0" dy="0" in="SourceAlpha" result="shadowOffsetOuter1"></feOffset>
            <feGaussianBlur stdDeviation="10" in="shadowOffsetOuter1" result="shadowBlurOuter1"></feGaussianBlur>
            <feColorMatrix values="0 0 0 0 0.505180027   0 0 0 0 0.495265099   0 0 0 0 0.495265099  0 0 0 0.295208698 0" type="matrix" in="shadowBlurOuter1" result="shadowMatrixOuter1"></feColorMatrix>
            <feMerge>
                <feMergeNode in="shadowMatrixOuter1"></feMergeNode>
                <feMergeNode in="SourceGraphic"></feMergeNode>
            </feMerge>
        </filter>
    </defs>
    <g id="Page-1" stroke="none" stroke-width="1" fill="none" fill-rule="evenodd">
        <g id="main-concept" transform="translate(-934.000000, -426.000000)">
            <g id="search-using-filters" filter="url(#filter-1)" transform="translate(56.000000, 450.000000)">
                <g id="Group-9" transform="translate(907.000000, 6.000000)">
                    <path d="M5.8288791,8.85072236 L1.74980586,8.85072236 C1.19752111,8.85072236 0.74980586,9.29843761 0.74980586,9.85072236 L0.74980586,16.1091243 C0.74980586,16.6614091 1.19752111,17.1091243 1.74980586,17.1091243 L15.5836058,17.1091243 C16.1358906,17.1091243 16.5836058,16.6614091 16.5836058,16.1091243 L16.5836058,9.85072236 C16.5836058,9.29843761 16.1358906,8.85072236 15.5836058,8.85072236 L11.3972241,8.85072236 C10.8449394,8.85072236 10.3972241,9.29843761 10.3972241,9.85072236 L10.3972241,15.2853626 C10.3972241,15.8376474 9.94950888,16.2853626 9.39722413,16.2853626 L7.8288791,16.2853626 C7.27659435,16.2853626 6.8288791,15.8376474 6.8288791,15.2853626 L6.8288791,9.85072236 C6.8288791,9.29843761 6.38116385,8.85072236 5.8288791,8.85072236 Z" id="Path-15" fill="#FFFFFF"></path>
                    <path d="M1,8.04735894 L5.84840731,8.04735894 C6.40069206,8.04735894 6.84840731,7.59964369 6.84840731,7.04735894 L6.84840731,5.55732009 C6.84840731,5.00503534 7.29612256,4.55732009 7.84840731,4.55732009 L9.38011278,4.55732009 C9.93239753,4.55732009 10.3801128,5.00503534 10.3801128,5.55732009 L10.3801128,7.04735894 C10.3801128,7.59964369 10.827828,8.04735894 11.3801128,8.04735894 L16.4100744,8.04735894 C16.9623592,8.04735894 17.4100744,7.59964369 17.4100744,7.04735894 L17.4100744,5.01033691 C17.4100744,4.45805216 16.9623592,4.01033691 16.4100744,4.01033691 L13.3768227,4.01033691 L13.3768227,4.01033691 L13.3768227,3.62325302 L3.82172837,3.62325302 L3.82172837,4.01033691 L1,4.01033691 C0.44771525,4.01033691 1.70872146e-15,4.45805216 1.77635684e-15,5.01033691 L1.77635684e-15,7.04735894 C1.59872852e-15,7.59964369 0.44771525,8.04735894 1,8.04735894 Z" id="Path-16" fill="#FFFFFF"></path>
                    <path d="M4.42752333,4.19614168 C1.95845365,2.16605147 1.52796892,0.826039374 3.13606915,0.17610539 C4.74416938,-0.473828593 6.47865518,0.675220615 8.33952656,3.62325302 L4.42752333,4.19614168 Z" id="Path-17" stroke="#FFFFFF"></path>
                    <path d="M10.8942519,4.19802879 C8.42518225,2.16793858 7.99469752,0.827926486 9.60279775,0.177992503 C11.210898,-0.471941481 12.9453838,0.677107727 14.8062552,3.62514013 L10.8942519,4.19802879 Z" id="Path-17" stroke="#FFFFFF" transform="translate(11.728831, 2.099958) scale(-1, 1) translate(-11.728831, -2.099958) "></path>
                </g>
            </g>
        </g>
    </g>
</svg>