<svg xmlns="http://www.w3.org/2000/svg" width="20" height="20" viewBox="0 0 20 20"><g><g><path d="M17.093 7.059c-.055-1.144-.32-2.159-1.154-2.993-.834-.835-1.847-1.097-2.991-1.154-1.18-.067-4.714-.067-5.893 0-1.14.054-2.153.317-2.991 1.15-.839.834-1.097 1.847-1.154 2.992-.067 1.178-.067 4.713 0 5.892.054 1.142.317 2.157 1.154 2.991.836.835 1.847 1.097 2.99 1.155 1.18.066 4.715.066 5.894 0 1.143-.055 2.156-.321 2.99-1.154.836-.834 1.097-1.847 1.155-2.992.066-1.18.066-4.712 0-5.887zM17.857 0C19.041 0 20 .96 20 2.143v15.714C20 19.041 19.04 20 17.857 20H2.143A2.143 2.143 0 0 1 0 17.857V2.143C0 .959.96 0 2.143 0zm-4.044 7.042a.853.853 0 0 0 .853-.856.854.854 0 1 0-.854.854zM10 13.661A3.656 3.656 0 0 0 13.66 10 3.66 3.66 0 1 0 10 13.66zm5.56-7.874c.372.94.286 3.17.286 4.208 0 1.038.086 3.27-.287 4.208a2.409 2.409 0 0 1-1.356 1.356c-.94.373-3.166.287-4.206.287-1.04 0-3.27.083-4.207-.287a2.409 2.409 0 0 1-1.356-1.356c-.371-.94-.289-3.17-.289-4.208 0-1.039-.082-3.271.287-4.208a2.409 2.409 0 0 1 1.356-1.356c.94-.373 3.168-.287 4.207-.287 1.04 0 3.27-.083 4.206.287.62.244 1.112.736 1.357 1.356zM10 7.62a2.381 2.381 0 1 1 .002 4.763A2.381 2.381 0 0 1 10 7.618z"/></g></g></svg>