<svg xmlns="http://www.w3.org/2000/svg" width="246" height="40" viewBox="0 0 246 40"><defs><clipPath id="xenna"><path fill="#fff" d="M0 8a8 8 0 0 1 8-8h230a8 8 0 0 1 8 8v24a8 8 0 0 1-8 8H8a8 8 0 0 1-8-8z"/></clipPath></defs><g><g><path fill="#323232" fill-opacity=".5" d="M0 8a8 8 0 0 1 8-8h230a8 8 0 0 1 8 8v24a8 8 0 0 1-8 8H8a8 8 0 0 1-8-8z"/><path fill="none" stroke="#fff" stroke-miterlimit="20" stroke-opacity=".5" stroke-width="2" d="M0 8a8 8 0 0 1 8-8h230a8 8 0 0 1 8 8v24a8 8 0 0 1-8 8H8a8 8 0 0 1-8-8z" clip-path="url(&quot;#xenna&quot;)"/></g></g></svg>