<svg xmlns="http://www.w3.org/2000/svg" width="52" height="45" viewBox="0 0 52 45"><g><g><path fill="#fff" d="M17.82 22.5h-8.1v-6.429c0-3.545 2.906-6.428 6.48-6.428h.81a2.415 2.415 0 0 0 2.43-2.41V2.41A2.415 2.415 0 0 0 17.01 0h-.81C7.25 0 0 7.192 0 16.071V40.18C0 42.84 2.177 45 4.86 45h12.96c2.683 0 4.86-2.16 4.86-4.821V27.32c0-2.661-2.177-4.821-4.86-4.821zm29.16 0h-8.1v-6.429c0-3.545 2.906-6.428 6.48-6.428h.81a2.415 2.415 0 0 0 2.43-2.41V2.41A2.415 2.415 0 0 0 46.17 0h-.81c-8.95 0-16.2 7.192-16.2 16.071V40.18c0 2.661 2.177 4.821 4.86 4.821h12.96c2.683 0 4.86-2.16 4.86-4.821V27.32c0-2.661-2.177-4.821-4.86-4.821z"/></g></g></svg>