<svg xmlns="http://www.w3.org/2000/svg" width="87" height="75" viewBox="0 0 87 75"><g><g><path fill="#88ca1e" d="M37.8 45.536v21.428c0 4.437-3.628 8.036-8.1 8.036H8.1C3.628 75 0 71.4 0 66.964V26.786C0 11.986 12.082 0 27 0h1.35c2.244 0 4.05 1.791 4.05 4.018v8.036c0 2.226-1.806 4.017-4.05 4.017H27c-5.957 0-10.8 4.805-10.8 10.715V37.5h13.5c4.472 0 8.1 3.6 8.1 8.036zm48.6 0v21.428c0 4.437-3.628 8.036-8.1 8.036H56.7c-4.472 0-8.1-3.6-8.1-8.036V26.786C48.6 11.986 60.683 0 75.6 0h1.35C79.194 0 81 1.791 81 4.018v8.036c0 2.226-1.806 4.017-4.05 4.017H75.6c-5.957 0-10.8 4.805-10.8 10.715V37.5h13.5c4.472 0 8.1 3.6 8.1 8.036z"/></g></g></svg>