<svg xmlns="http://www.w3.org/2000/svg" width="20" height="20" viewBox="0 0 20 20"><g><g><path d="M15.611 7.238v.38c0 3.62-2.762 7.81-7.81 7.81-1.523 0-2.952-.476-4.19-1.237h.667c1.238 0 2.476-.477 3.429-1.143-1.238 0-2.19-.857-2.571-1.905.19 0 .38.096.476.096.286 0 .477 0 .762-.096-1.237-.285-2.19-1.333-2.19-2.666.382.19.763.285 1.238.38-.762-.666-1.238-1.428-1.238-2.38 0-.477.096-.953.382-1.334C5.899 6.763 7.899 7.906 10.184 8c0-.19-.095-.381-.095-.667a2.764 2.764 0 0 1 2.762-2.762c.762 0 1.523.286 2 .857.667-.096 1.238-.381 1.715-.667-.19.667-.667 1.143-1.238 1.523.57-.095 1.048-.19 1.619-.476a6.432 6.432 0 0 1-1.336 1.43zM15.556 0H4.444A4.445 4.445 0 0 0 0 4.444v11.112A4.445 4.445 0 0 0 4.444 20h11.112A4.445 4.445 0 0 0 20 15.556V4.444A4.445 4.445 0 0 0 15.556 0z"/></g></g></svg>